# xmcd
# 
# Track frame offsets:
#     150
#     15125
#     35580
#     51975
#     63635
# 
# Disc length: 1144
# 
# Revision: 0
# Processed by: cddbd v1.5.2PL0 Copyright (c) Steve Scherf et al.
# Submitted via: BonkEnc v1.0.8
# 
DISCID=3a047605
DTITLE=La Puma - Slave For The Rabbitboy
DYEAR=2006
DGENRE=Rock
TTITLE0=Chill Chill
TTITLE1=Fighter
TTITLE2=Come And Dance
TTITLE3=Rabbitboy
TTITLE4=Shaking Good
EXTD=Recorded April- Sep. 2006 at toygirl recordings, Stockholm. Produced by La Puma.
EXTT0=
EXTT1=
EXTT2=
EXTT3=
EXTT4=
PLAYORDER=
